# xmcd
#
# Track frame offsets:
#	150
#	16588
#	37288
#	53181
#
# Disc length: 984 seconds
#
# Revision: 0
# Processed by: cddbd v1.5PL3 Copyright (c) Steve Scherf et al.
# Submitted via: MusicManager 7.0.3.0 
#
DISCID=2b03d604
DTITLE=Dahl, Steve - Pet Fishsticks
DYEAR=1900
DGENRE=misc
TTITLE0=I'm A Wimp
TTITLE1=Chanks For The Memories
TTITLE2=Nobody's Perfect
TTITLE3=The Worst Seat In The House
EXTD=
EXTT0=
EXTT1=
EXTT2=
EXTT3=
PLAYORDER=
